<svg xmlns="http://www.w3.org/2000/svg" width="1200" height="360" viewBox="0 0 1200 360" role="img" aria-labelledby="title desc">
  <title id="title">NARVE</title>
  <desc id="desc">NARVE — Neural Adaptive Reasoning Virtual Entity</desc>
  <defs>
    <linearGradient id="bg" x1="0" y1="0" x2="1" y2="1">
      <stop offset="0" stop-color="#070A12"/>
      <stop offset="0.5" stop-color="#11142A"/>
      <stop offset="1" stop-color="#091B23"/>
    </linearGradient>
    <linearGradient id="accent" x1="0" y1="0" x2="1" y2="0">
      <stop offset="0" stop-color="#8B5CF6"/>
      <stop offset="0.5" stop-color="#5B8CFF"/>
      <stop offset="1" stop-color="#22D3EE"/>
    </linearGradient>
    <radialGradient id="glow">
      <stop offset="0" stop-color="#7C3AED" stop-opacity=".38"/>
      <stop offset="1" stop-color="#7C3AED" stop-opacity="0"/>
    </radialGradient>
    <filter id="softGlow" x="-50%" y="-50%" width="200%" height="200%">
      <feGaussianBlur stdDeviation="10"/>
    </filter>
  </defs>

  <rect width="1200" height="360" rx="28" fill="url(#bg)"/>
  <circle cx="955" cy="60" r="260" fill="url(#glow)"/>
  <circle cx="150" cy="330" r="240" fill="url(#glow)" opacity=".55"/>

  <g opacity=".24" stroke="#69A8FF" fill="none">
    <path d="M0 274 C180 195 280 327 470 238 S790 145 1200 238"/>
    <path d="M0 304 C205 228 315 350 500 271 S850 180 1200 270"/>
  </g>

  <g transform="translate(825 63)">
    <circle cx="120" cy="120" r="92" fill="none" stroke="url(#accent)" stroke-width="2" opacity=".7"/>
    <circle cx="120" cy="120" r="65" fill="none" stroke="#759DFF" stroke-width="1" opacity=".35"/>
    <path d="M68 170V70L172 170V70" fill="none" stroke="url(#accent)" stroke-width="11" stroke-linecap="round" stroke-linejoin="round"/>
    <g fill="#B7C9FF">
      <circle cx="120" cy="27" r="5"/><circle cx="213" cy="120" r="5"/><circle cx="120" cy="213" r="5"/><circle cx="27" cy="120" r="5"/>
    </g>
    <g stroke="#7DD3FC" stroke-width="1.5" opacity=".7">
      <path d="M120 27V0"/><path d="M213 120h27"/><path d="M120 213v27"/><path d="M27 120H0"/>
    </g>
  </g>

  <g transform="translate(86 82)">
    <text x="0" y="106" fill="white" font-family="Inter,Segoe UI,Arial,sans-serif" font-size="112" font-weight="750" letter-spacing="14">NARVE</text>
    <rect x="3" y="132" width="605" height="3" rx="1.5" fill="url(#accent)"/>
    <text x="4" y="174" fill="#B7C2E2" font-family="Inter,Segoe UI,Arial,sans-serif" font-size="22" letter-spacing="4">NEURAL ADAPTIVE REASONING VIRTUAL ENTITY</text>
    <text x="5" y="218" fill="#7DD3FC" font-family="Inter,Segoe UI,Arial,sans-serif" font-size="18" letter-spacing="1.5">LOCAL • PERSONAL • EVOLVING</text>
  </g>

  <rect x="1" y="1" width="1198" height="358" rx="27" fill="none" stroke="#6D7CFF" stroke-opacity=".22"/>
</svg>
